<?xml version="1.0" encoding="UTF-8" standalone="no"?>
<svg
   viewBox="0 0 24 24"
   version="1.1"
   id="svg1"
   sodipodi:docname="magnify.svg"
   width="24"
   height="24"
   inkscape:version="1.4.2 (ebf0e940d0, 2025-05-08)"
   xmlns:inkscape="http://www.inkscape.org/namespaces/inkscape"
   xmlns:sodipodi="http://sodipodi.sourceforge.net/DTD/sodipodi-0.dtd"
   xmlns="http://www.w3.org/2000/svg"
   xmlns:svg="http://www.w3.org/2000/svg">
  <defs
     id="defs1" />
  <sodipodi:namedview
     id="namedview1"
     pagecolor="#ffffff"
     bordercolor="#000000"
     borderopacity="0.25"
     inkscape:showpageshadow="2"
     inkscape:pageopacity="0.0"
     inkscape:pagecheckerboard="0"
     inkscape:deskcolor="#d1d1d1"
     inkscape:zoom="21.666667"
     inkscape:cx="8.9769231"
     inkscape:cy="14.538462"
     inkscape:window-width="1366"
     inkscape:window-height="689"
     inkscape:window-x="0"
     inkscape:window-y="0"
     inkscape:window-maximized="1"
     inkscape:current-layer="svg1" />
  <path
     d="m 8.91429,0 a 8.9142873,8.9142873 0 0 1 8.914292,8.91429 c 0,2.208001 -0.809164,4.23771 -2.139455,5.801128 l 0.370291,0.370291 h 1.083455 L 24,21.942873 21.942873,24 15.085709,17.142873 V 16.059418 L 14.715418,15.689127 C 13.152,17.019418 11.122291,17.828582 8.91429,17.828582 A 8.9142873,8.9142873 0 0 1 0,8.91429 8.9142873,8.9142873 0 0 1 8.91429,0 m 0,2.7428582 c -3.4285773,0 -6.1714318,2.7428545 -6.1714318,6.1714318 0,3.428583 2.7428545,6.171419 6.1714318,6.171419 3.428583,0 6.171419,-2.742836 6.171419,-6.171419 0,-3.4285773 -2.742836,-6.1714318 -6.171419,-6.1714318 z"
     id="path1"
     style="stroke-width:1.37127" />
</svg>
