<?xml version="1.0" encoding="UTF-8" standalone="no"?>
<svg
   viewBox="0 0 24 24.001259"
   version="1.1"
   id="svg1"
   sodipodi:docname="handshake-outline.svg"
   width="24"
   height="24.001259"
   inkscape:version="1.4.2 (ebf0e940d0, 2025-05-08)"
   xmlns:inkscape="http://www.inkscape.org/namespaces/inkscape"
   xmlns:sodipodi="http://sodipodi.sourceforge.net/DTD/sodipodi-0.dtd"
   xmlns="http://www.w3.org/2000/svg"
   xmlns:svg="http://www.w3.org/2000/svg">
  <defs
     id="defs1" />
  <sodipodi:namedview
     id="namedview1"
     pagecolor="#ffffff"
     bordercolor="#000000"
     borderopacity="0.25"
     inkscape:showpageshadow="2"
     inkscape:pageopacity="0.0"
     inkscape:pagecheckerboard="0"
     inkscape:deskcolor="#d1d1d1"
     inkscape:zoom="21.666667"
     inkscape:cx="10.407692"
     inkscape:cy="10.430769"
     inkscape:window-width="1366"
     inkscape:window-height="689"
     inkscape:window-x="0"
     inkscape:window-y="0"
     inkscape:window-maximized="1"
     inkscape:current-layer="svg1" />
  <path
     d="m 23.15141,8.2216131 c 1.435557,-1.4355573 0.780943,-3.1122882 0,-3.9276848 L 19.706072,0.84859083 c -1.447042,-1.43555733 -3.112288,-0.7809432 -3.927685,0 L 13.826029,2.8124332 h -2.974474 c -2.1820484,0 -3.4453384,1.1484458 -4.0884681,2.4691586 L 1.6639873,10.380692 v 4.593783 l -0.81539647,0.803912 c -1.43555733,1.447042 -0.7809432,3.112288 0,3.927685 L 4.2939283,23.15141 c 0.6201608,0.62016 1.2862594,0.849849 1.9179046,0.849849 0.8153965,0 1.5618863,-0.401956 2.0097802,-0.849849 l 3.1008039,-3.112289 h 4.122921 c 1.952358,0 2.940021,-1.217352 3.296039,-2.411736 1.297744,-0.344534 2.009781,-1.332197 2.296892,-2.296892 C 22.81836,14.871115 23.484459,13.1829 23.484459,12 V 8.5546626 H 22.806876 L 23.15141,8.2216131 M 21.187567,12 c 0,0.516801 -0.218205,1.148446 -1.148446,1.148446 h -1.148446 v 1.148446 c 0,0.516801 -0.218204,1.148446 -1.148445,1.148446 h -1.148446 v 1.148446 c 0,0.5168 -0.218205,1.148446 -1.148446,1.148446 h -5.064646 l -3.7669031,3.766902 c -0.3560182,0.333049 -0.5627384,0.137813 -0.6890675,0.01148 L 2.4908683,18.098248 C 2.157819,17.74223 2.3530548,17.535509 2.4793839,17.40918 L 3.960879,15.916201 V 11.322417 L 6.2577707,9.0255256 v 1.8260294 c 0,1.389619 0.9187567,3.445337 3.4453379,3.445337 2.5265814,0 3.4453374,-2.055718 3.4453374,-3.445337 h 8.039121 V 12 M 21.520616,6.59082 19.568259,8.5546626 H 10.851555 V 10.851555 C 10.851555,11.368355 10.63335,12 9.7031086,12 8.7728676,12 8.5546626,11.368355 8.5546626,10.851555 V 7.4062166 c 0,-0.5282851 0.195236,-2.2968917 2.2968924,-2.2968917 h 3.9162 L 17.386211,2.4908683 C 17.74223,2.157819 17.94895,2.3530548 18.075279,2.4793843 l 3.433853,3.4223686 c 0.333049,0.3560182 0.137813,0.5627385 0.01148,0.6890675 z"
     id="path1"
     style="stroke-width:1.14845" />
</svg>
