<?xml version="1.0" encoding="UTF-8" standalone="no"?>
<svg
   viewBox="0 0 24 24"
   version="1.1"
   id="svg1"
   sodipodi:docname="clock-outline.svg"
   inkscape:version="1.4.2 (ebf0e940d0, 2025-05-08)"
   xmlns:inkscape="http://www.inkscape.org/namespaces/inkscape"
   xmlns:sodipodi="http://sodipodi.sourceforge.net/DTD/sodipodi-0.dtd"
   xmlns="http://www.w3.org/2000/svg"
   xmlns:svg="http://www.w3.org/2000/svg">
  <defs
     id="defs1" />
  <sodipodi:namedview
     id="namedview1"
     pagecolor="#ffffff"
     bordercolor="#000000"
     borderopacity="0.25"
     inkscape:showpageshadow="2"
     inkscape:pageopacity="0.0"
     inkscape:pagecheckerboard="0"
     inkscape:deskcolor="#d1d1d1"
     inkscape:zoom="21.666667"
     inkscape:cx="12"
     inkscape:cy="12"
     inkscape:window-width="1366"
     inkscape:window-height="689"
     inkscape:window-x="0"
     inkscape:window-y="0"
     inkscape:window-maximized="1"
     inkscape:current-layer="svg1" />
  <path
     d="M 12,20.8 A 8.8,8.8 0 0 0 20.8,12 8.8,8.8 0 0 0 12,3.2 8.8,8.8 0 0 0 3.2,12 8.8,8.8 0 0 0 12,20.8 M 12,1 A 11,11 0 0 1 23,12 11,11 0 0 1 12,23 C 5.917,23 1,18.05 1,12 A 11,11 0 0 1 12,1 m 0.55,5.5 v 5.775 L 17.5,15.212 16.675,16.565 10.9,13.1 V 6.5 Z"
     id="path1"
     style="fill:#4f6144;fill-opacity:1;stroke-width:1.1" />
</svg>
